<svg width="43" height="37" viewBox="0 0 43 37" fill="none" xmlns="http://www.w3.org/2000/svg">
<path d="M38.4312 7.18299L38.4305 7.18023C37.3002 3.00837 33.6776 0.194554 29.6942 0.455053L29.6932 0.455124L9.79918 1.83765L9.79818 1.83773C5.81725 2.13041 2.61884 5.41805 2.07674 9.70589L2.07665 9.70661L0.386061 23.3981L0.383981 23.415L0.384197 23.4319C0.384405 23.4482 0.385162 23.4645 0.386466 23.4808C0.00525807 26.8193 1.0348 30.1895 3.18992 32.6341C5.35098 35.0855 8.41 36.3394 11.4963 36.0245L38.4588 34.1508C39.5945 34.0719 40.6344 33.47 41.3252 32.5042C42.0152 31.5394 42.2949 30.2995 42.1015 29.0898L42.1016 29.0898L42.1009 29.0858C41.8102 27.4383 40.6956 26.1013 39.2276 25.6257C41.1385 23.7043 41.9116 20.7613 41.2207 17.9833C41.2201 17.9754 41.2191 17.9663 41.2174 17.9563L40.971 17.9986L41.213 17.936L38.4312 7.18299ZM36.636 7.70879L38.1047 13.3825C36.8417 12.5063 35.354 12.0813 33.8538 12.185L33.8537 12.185L9.68437 13.8647C7.12515 14.0338 4.74725 15.2656 3.02285 17.2861L3.92617 9.9878C3.92619 9.98769 3.9262 9.98758 3.92621 9.98748C4.35437 6.60224 6.86739 4.05761 9.93825 3.83158L29.8312 2.44912C32.9018 2.2478 35.7414 4.41712 36.6357 7.70746C36.6358 7.7079 36.6359 7.70835 36.636 7.70879ZM10.4207 22.5778L10.4207 22.5778L10.4264 22.5774L34.4599 20.9072C34.995 20.87 35.3575 20.3738 35.3208 19.8456C35.2841 19.3174 34.8565 18.8761 34.3213 18.9133L10.2892 20.5834C8.18447 20.7059 6.54977 22.5353 6.44971 24.7938L6.44964 24.7938L6.44952 24.7998C6.42484 26.0254 6.87299 27.2158 7.68981 28.0771C8.50748 28.9393 9.62097 29.3929 10.7575 29.3151L10.7578 29.3151L37.8598 27.4317L37.8598 27.4317L37.8654 27.4312C38.9753 27.3288 40.021 28.1595 40.2629 29.4094C40.3716 30.0781 40.215 30.7586 39.8386 31.2798L39.8382 31.2803C39.4647 31.8003 38.9125 32.1146 38.3198 32.1568L11.3537 34.0308L11.3537 34.0308L11.3491 34.0312C6.89914 34.422 2.87182 30.9045 2.23613 25.9862C1.95082 23.499 2.6059 21.0093 4.04247 19.0968C5.47869 17.1848 7.56876 16.018 9.82294 15.8586L33.9923 14.179C36.8412 13.981 39.3663 16.3613 39.5878 19.5491C39.8094 22.7368 37.6378 25.4435 34.7889 25.6415L10.6196 27.3211C10.0251 27.3616 9.43305 27.1249 8.99131 26.6585C8.54964 26.1922 8.30183 25.5412 8.31495 24.8651C8.38582 23.5945 9.30744 22.6297 10.4207 22.5778Z" fill="#F77178" stroke="#F77178" stroke-width="0.5"/>
</svg>
