<svg width="16" height="16" viewBox="0 0 16 16" fill="none" xmlns="http://www.w3.org/2000/svg">
<g clip-path="url(#clip0_151_4)">
<path fill-rule="evenodd" clip-rule="evenodd" d="M4.50436 2.97293C3.76512 2.86013 3.07878 3.40267 2.97136 4.18472C2.86394 4.96677 3.37612 5.69219 4.11536 5.80499C4.3591 5.84218 4.52799 6.08137 4.49257 6.33924C4.45715 6.5971 4.23084 6.776 3.98709 6.7388C2.76037 6.55162 1.91042 5.34782 2.08867 4.05004C2.26693 2.75226 3.40589 1.85194 4.63262 2.03912C4.87637 2.07631 5.04525 2.3155 5.00983 2.57337C4.97441 2.83123 4.7481 3.01012 4.50436 2.97293Z" fill="#FEE715"/>
<path fill-rule="evenodd" clip-rule="evenodd" d="M12.9242 10.619C12.7554 10.809 12.7639 11.1075 12.9433 11.2859C13.3006 11.6411 13.4935 11.9435 13.5921 12.2274C13.6895 12.5078 13.7089 12.8101 13.6564 13.1922C13.5887 13.6853 13.3879 14.0829 13.0724 14.3357C12.7602 14.5859 12.2782 14.7402 11.5604 14.6307C11.3167 14.5935 11.0903 14.7724 11.0549 15.0303C11.0195 15.2881 11.1884 15.5273 11.4321 15.5645C12.3278 15.7012 13.0658 15.5241 13.6106 15.0875C14.1521 14.6536 14.4454 14.009 14.5391 13.3269C14.6064 12.8365 14.5914 12.3677 14.4294 11.9013C14.2686 11.4384 13.9772 11.0183 13.5546 10.5981C13.3752 10.4197 13.093 10.4291 12.9242 10.619Z" fill="#FEE715"/>
<path fill-rule="evenodd" clip-rule="evenodd" d="M11.5367 3.56657C11.5007 3.82435 11.6691 4.06395 11.9127 4.10174C12.973 4.26616 13.7084 4.77579 14.1533 5.43656C14.6014 6.10214 14.7787 6.95703 14.6559 7.85088C14.5301 8.76701 14.1799 9.5089 13.6229 9.9817C13.0722 10.4492 12.2592 10.7048 11.1044 10.5286C10.8607 10.4914 10.6344 10.6703 10.5989 10.9281C10.5635 11.186 10.7324 11.4252 10.9761 11.4624C12.3175 11.6671 13.3956 11.3838 14.1807 10.7173C14.9596 10.0561 15.3898 9.06893 15.5386 7.98557C15.6904 6.87992 15.4762 5.77433 14.88 4.88874C14.2806 3.99833 13.319 3.3661 12.043 3.16824C11.7994 3.13045 11.5727 3.30879 11.5367 3.56657Z" fill="#FEE715"/>
<path fill-rule="evenodd" clip-rule="evenodd" d="M2.5264 7.48913C1.94276 7.99049 1.55863 8.76916 1.42842 9.71707C1.29734 10.6714 1.44346 11.5299 1.85915 12.1807C2.2695 12.8231 2.97987 13.3219 4.09363 13.4919C4.33738 13.529 4.50626 13.7682 4.47084 14.0261C4.43542 14.284 4.20911 14.4629 3.96537 14.4257C2.64812 14.2247 1.69445 13.6089 1.11992 12.7095C0.55074 11.8184 0.391147 10.7079 0.54574 9.58239C0.701215 8.45047 1.17261 7.43728 1.96455 6.75699C2.7627 6.07137 3.84051 5.76363 5.12816 5.96011C5.3719 5.9973 5.54079 6.2365 5.50537 6.49436C5.46995 6.75223 5.24364 6.93112 4.99989 6.89392C3.92166 6.7294 3.10384 6.9931 2.5264 7.48913Z" fill="#FEE715"/>
<path fill-rule="evenodd" clip-rule="evenodd" d="M12.4909 3.71544C12.5263 3.45758 12.3574 3.21838 12.1137 3.18119L4.63254 2.03968C4.38879 2.00248 4.16248 2.18137 4.12706 2.43924C4.09164 2.69711 4.26053 2.9363 4.50427 2.97349L11.9854 4.11501C12.2291 4.1522 12.4554 3.97331 12.4909 3.71544Z" fill="#FEE715"/>
<path fill-rule="evenodd" clip-rule="evenodd" d="M11.9736 7.48058C12.0091 7.22271 11.8402 6.98352 11.5964 6.94633L4.11532 5.80481C3.87158 5.76762 3.64527 5.94651 3.60985 6.20438C3.57443 6.46224 3.74331 6.70143 3.98706 6.73863L11.4682 7.88014C11.7119 7.91734 11.9382 7.73844 11.9736 7.48058Z" fill="#FEE715"/>
<path fill-rule="evenodd" clip-rule="evenodd" d="M11.4817 11.0631C11.5171 10.8052 11.3482 10.566 11.1045 10.5288L4.6363 9.54189C4.39255 9.5047 4.16624 9.68359 4.13082 9.94145C4.0954 10.1993 4.26429 10.4385 4.50803 10.4757L10.9762 11.4627C11.22 11.4999 11.4463 11.321 11.4817 11.0631Z" fill="#FEE715"/>
<path fill-rule="evenodd" clip-rule="evenodd" d="M12.0678 15.1842C12.1032 14.9263 11.9343 14.6871 11.6906 14.6499L4.09368 13.4908C3.84993 13.4536 3.62362 13.6325 3.5882 13.8903C3.55278 14.1482 3.72167 14.3874 3.96541 14.4246L11.5623 15.5838C11.806 15.6209 12.0323 15.4421 12.0678 15.1842Z" fill="#FEE715"/>
<path fill-rule="evenodd" clip-rule="evenodd" d="M11.6771 1.90102C12.3163 2.08484 12.8029 2.28203 13.0791 2.47277C13.2527 2.59263 13.4642 2.86788 13.6836 3.3031C13.8959 3.72412 14.0891 4.24099 14.25 4.77592C14.4104 5.30945 14.5351 5.84889 14.6135 6.30984C14.6943 6.78489 14.7184 7.13383 14.7016 7.3059C14.6764 7.56509 14.8545 7.79665 15.0995 7.82311C15.3445 7.84956 15.5636 7.66089 15.5889 7.40171C15.6193 7.08957 15.5744 6.63019 15.4913 6.14181C15.4059 5.63933 15.2718 5.06022 15.1 4.48907C14.9287 3.91933 14.7162 3.3454 14.4708 2.85848C14.2325 2.38575 13.9342 1.93593 13.5673 1.68258C13.1679 1.4068 12.5673 1.17903 11.9119 0.990561C11.2447 0.798706 10.4772 0.635755 9.71441 0.506134C8.20018 0.248808 6.64932 0.113728 5.89739 0.160471C5.44097 0.188845 5.00953 0.391761 4.63449 0.646311C4.25615 0.903093 3.90584 1.23249 3.60573 1.55706C3.00552 2.20618 2.56702 2.87909 2.46588 3.03626C2.32722 3.25175 2.37984 3.54514 2.58341 3.69158C2.78698 3.83803 3.06441 3.78206 3.20307 3.56657C3.29485 3.42395 3.69835 2.8055 4.24307 2.21639C4.51542 1.92185 4.8133 1.64541 5.11562 1.44022C5.42123 1.2328 5.70291 1.11761 5.94878 1.10232C6.60147 1.06175 8.07511 1.18329 9.57201 1.43767C10.3148 1.5639 11.0495 1.72058 11.6771 1.90102Z" fill="#FEE715"/>
<path d="M12.8577 1.8261L14.3876 3.96729L14.3815 4.60914L13.4062 4.13593L11.9547 3.76651L7.61952 2.94459L4.59651 2.52944L3.91996 2.16732L4.61034 1.06015L6.71933 0.708784L12.8577 1.8261Z" fill="#FEE715"/>
</g>
<defs>
<clipPath id="clip0_151_4">
<rect width="16" height="16" fill="white"/>
</clipPath>
</defs>
</svg>
